<svg id="logos" xmlns="http://www.w3.org/2000/svg" viewBox="0 0 437.12 69.23"><defs><style>.cls-1{fill:#231f20;}</style></defs><path class="cls-1" d="M480.15,93.16,473,99.75a10.52,10.52,0,0,0-8.15-4.26c-2.33,0-4.46,1.35-4.46,4.07,0,2.13,1.75,3.68,4.66,4.75,6.69,2.43,17.64,4.56,17.64,15,0,8.83-6.78,16.29-17.35,16.29-10.19,0-17-7.17-19.4-13.18l9.6-5.14c1.75,4.75,5,8,9.8,8,3.68,0,6-1.64,6-5.23,0-4.07-6.3-5-12.22-7.47-5.33-2.23-9.89-5.62-9.89-13.19s6.11-14.25,15.61-14.25A18,18,0,0,1,480.15,93.16Z" transform="translate(-69.33 -66.4)"/><path class="cls-1" d="M305,98.89c1.55-8,8.61-13.54,18.56-13.54,11.61,0,20.5,4.84,20.5,20.4v29.11h-9.86L333,128.67a18.14,18.14,0,0,1-15,7c-8.32,0-14.8-5.12-14.8-14.79s8.51-16,20.79-16h8.12v-2.12c0-5.42-4.06-7.16-8.51-7.16-3.38,0-6.86,1.07-8.41,5.61Zm15.76,26.49c5.51,0,11.31-3.77,11.31-10v-1h-8c-5.13,0-8.32,1.93-8.32,6.29A4.69,4.69,0,0,0,320.8,125.38Z" transform="translate(-69.33 -66.4)"/><path class="cls-1" d="M355,134.86V86.13h12v7.92c3.48-5.7,8.9-8.7,14.41-8.7a19.87,19.87,0,0,1,5.9,1L385,97.44a9.3,9.3,0,0,0-5-1.36c-7,0-13.05,5.71-13.05,21.47v17.31Z" transform="translate(-69.33 -66.4)"/><path class="cls-1" d="M412.93,85.35c4.93,0,9.67,2.52,11.79,5.22V66.4h12v68.46h-12v-5c-1.35,2.52-5.8,5.8-11.79,5.8-14.7,0-22.24-10.15-22.24-25.14S398.23,85.35,412.93,85.35Zm1.64,40c6.29,0,11.22-5.22,11.22-14.89S420.86,95.6,414.57,95.6s-11.31,5.22-11.31,14.89S408.29,125.38,414.57,125.38Z" transform="translate(-69.33 -66.4)"/><path class="cls-1" d="M498.33,119.19a8.13,8.13,0,1,1-8.12,8.13A7.94,7.94,0,0,1,498.33,119.19Z" transform="translate(-69.33 -66.4)"/><path class="cls-1" d="M71.17,98.89c1.55-8,8.6-13.54,18.56-13.54,11.61,0,20.5,4.84,20.5,20.4v29.11h-9.86l-1.26-6.19a18.14,18.14,0,0,1-15,7c-8.32,0-14.8-5.12-14.8-14.79s8.51-16,20.79-16h8.12v-2.12c0-5.42-4.06-7.16-8.51-7.16-3.38,0-6.86,1.07-8.41,5.61Zm15.76,26.49c5.51,0,11.31-3.77,11.31-10v-1h-8c-5.13,0-8.32,1.93-8.32,6.29A4.69,4.69,0,0,0,86.93,125.38Z" transform="translate(-69.33 -66.4)"/><path class="cls-1" d="M184.25,86.12l-15.57,48.74H158l-8.41-31.52-8.41,31.52H130.58L115,86.12H127.1l8.7,33.46L144,86.12h11.22l8.22,33.46,8.7-33.46Z" transform="translate(-69.33 -66.4)"/><polygon class="cls-1" points="160.78 19.73 152.08 53.18 143.86 19.73 132.64 19.73 124.42 53.18 117.58 33.75 116.87 35.98 112.88 48.5 119.2 68.46 129.84 68.46 138.25 36.94 146.66 68.46 157.3 68.46 172.87 19.73 160.78 19.73"/><polygon class="cls-1" points="218.73 19.73 210.03 53.18 201.81 19.73 190.59 19.73 182.38 53.18 175.54 33.75 174.82 35.98 170.83 48.5 177.15 68.46 187.79 68.46 196.2 36.94 204.62 68.46 215.25 68.46 230.82 19.73 218.73 19.73"/></svg>