<svg xmlns="http://www.w3.org/2000/svg" viewBox="0 0 158 33"><path d="M17.4 22.4C16.3 24.4 14.5 25.4 12.5 25.4C8.9 25.4 6.6 22.5 6.6 17.2C6.6 12.8 8 10.4 9.5 10.4C11.2 10.4 11.4 13.1 12 14.5C12.4 15.7 13.4 16.4 14.7 16.4C16.3 16.4 17.4 15.3 17.4 13.9C17.4 11.9 15.2 9.70001 10.5 9.70001C4.4 9.70001 0 14.1 0 20C0 25.7 4.2 29.6 9.2 29.6C13.5 29.6 16.6 27.1 17.8 22.6L17.4 22.4Z"></path><path d="M52.9 25.4C49.9 25.4 47.8 23.4 47.2 19.6L53.7 17.8C55.3 17.3 56.3 17 56.9 16.4C57.9 15.4 57.9 13.7 57.6 13.1C57 11.4 54.8 9.79999 50.9 9.79999C44.9 9.79999 40.5 14.2 40.5 20.1C40.5 25.8 44.7 29.7 49.7 29.7C54 29.7 57.1 27.2 58.3 22.7L57.8 22.5C56.7 24.4 54.9 25.4 52.9 25.4ZM49.9 10.4C50.3 10.4 50.7 10.6 51 10.8L51.2 10.9C51.3 11 51.3 11 51.4 11.1L51.2 11C51.4 11.3 51.8 11.7 52.1 12.5C52.4 13.4 52.7 14.6 52.2 15.6C51.9 16.2 51.5 16.7 51 17.1C50.3 17.6 49.6 18 48.8 18.3C48.2 18.6 47.6 18.8 47 19C46.9 18.5 46.9 17.9 46.9 17.3C46.9 12.7 48.3 10.4 49.9 10.4Z"></path><path d="M38.2 25.6V14.9C38.2 11.4 36.2 9.7 33.2 9.7C30.5 9.7 28.1 11.3 26.5 13V0.1L26.2 0L17.4 2.3V2.7C18.6 2.6 19.9 3.2 19.9 5.6V25.6C19.9 27.6 18.9 28.3 17.8 28.5V28.9H28.4V28.5C27.4 28.4 26.6 27.7 26.6 25.6V13.9C27.4 13.1 28.4 12.6 29.4 12.6C30.7 12.6 31.6 13.6 31.6 15.5V25.5C31.6 27.6 31 28.2 29.8 28.4V28.8H40.5V28.4C39.3 28.3 38.2 27.6 38.2 25.6Z"></path><path d="M73.8 9.20001C71.8 9.20001 69.3 10.8 68.1 14.3V9.90001L67.8 9.80001L58.9 12.3V12.7C60.2 12.6 61.6 13.2 61.6 15.5V25.7C61.6 27.7 60.4 28.4 59.3 28.6V29H70.6V28.6C69.4 28.5 68.3 27.8 68.3 25.7V16C68.7 14.4 69.2 13.4 70.2 13.4C71.6 13.4 72 15 73.9 15C75.6 15 76.8 13.8 76.8 12C76.7 10.6 75.6 9.20001 73.8 9.20001Z"></path><path d="M104.3 25.9C103.8 26.6 103.3 26.9 102.7 26.9C101.9 26.9 101.5 26.3 101.5 25.3V16.1C101.5 12.2 98.8 9.70001 93.3 9.70001C88 9.70001 85.5 11.6 85.5 14C85.5 15.6 86.7 16.6 88.1 16.6C89.3 16.6 90.5 16 91.1 14.3C91.9 12.3 91.3 10.3 93.1 10.3C94.2 10.3 94.8 11.2 94.8 14V17.5C86.6 19.7 84.4 22.1 84.4 25.1C84.4 28 86.7 29.5 89.1 29.5C91.1 29.5 93.4 28.5 95.1 26.8C95.7 28.6 97.1 29.5 99 29.5C101.4 29.5 103.4 28.3 104.6 26.2L104.3 25.9ZM93.1 26.7C91.8 26.7 90.6 25.7 90.6 23.6C90.6 21.8 91.3 19.6 94.9 18.3V24.6C94.9 25.1 94.9 25.6 95 26C94.3 26.5 93.7 26.7 93.1 26.7Z"></path><path d="M136.1 25.6V14.9C136.1 11.4 134 9.70001 131.1 9.70001C128.3 9.70001 126.2 11.3 124.7 13.2C124.1 10.9 122.3 9.70001 119.9 9.70001C117.2 9.70001 115.1 11.3 113.6 13V9.90001L113.3 9.80001L104.4 12.3V12.7C105.7 12.6 107.1 13.2 107.1 15.5V25.6C107.1 27.6 106 28.3 104.8 28.5V28.9H115.2V28.5C114.2 28.4 113.7 27.7 113.7 25.6V13.8C114.5 13 115.4 12.6 116.2 12.6C117.5 12.6 118.3 13.6 118.3 15.5V25.5C118.3 27.6 117.8 28.3 116.7 28.4V28.8H126.5V28.4C125.5 28.3 125 27.6 125 25.5V14.9C125 14.6 125 14.3 125 14C125.8 13.2 126.6 12.6 127.5 12.6C128.7 12.6 129.6 13.6 129.6 15.5V25.5C129.6 27.6 129.2 28.3 128.1 28.4V28.8H138.5V28.4C137.2 28.3 136.1 27.6 136.1 25.6Z"></path><path d="M144.4 7.80001C146.6 7.80001 148.3 6.10001 148.3 4.00001C148.3 1.80001 146.6 0.100006 144.4 0.100006C142.3 0.100006 140.5 1.80001 140.5 4.00001C140.5 6.00001 142.3 7.80001 144.4 7.80001Z"></path><path d="M147.8 25.6V15L147.9 9.80001L147.6 9.70001L138.5 12.2V12.6C139.8 12.5 141.2 13.1 141.2 15.4V25.5C141.2 27.5 140.1 28.2 138.9 28.4V28.8H150.2V28.4C149.1 28.3 147.8 27.6 147.8 25.6Z"></path><path d="M155.6 22.9C153.8 22.4 152.3 23.4 151.9 24.8C151.6 26 152 27 152.8 27.7C153.6 28.4 154.5 28.7 154.2 29.8C153.9 30.8 152 31.8 150.7 31.7V32.2C153.8 32.4 156.5 29.8 157.4 26.9C158.1 24.9 157.2 23.4 155.6 22.9Z"></path></svg>