<svg width="994" height="306" viewBox="0 0 994 306" fill="none" xmlns="http://www.w3.org/2000/svg">
<mask id="path-1-outside-1_806_275" maskUnits="userSpaceOnUse" x="39.1758" y="56.9844" width="922" height="228" fill="black">
<rect fill="white" x="39.1758" y="56.9844" width="922" height="228"/>
<path d="M68.5812 219.506V146.543H182.203V219.506C182.203 234.265 176.076 236.215 168.279 238.443V239H210.609V238.443C202.811 236.215 196.684 234.265 196.684 219.506V77.4783C196.684 62.7186 202.811 60.7692 210.609 58.5414V57.9844H168.279V58.5414C176.076 60.7692 182.203 62.7186 182.203 77.4783V143.758H68.5812V77.4783C68.5812 62.7186 74.7079 60.7692 82.5055 58.5414V57.9844H40.1758L40.1758 58.5414C47.9734 60.7692 54.1 62.7186 54.1 77.4783V219.506C54.1 234.265 47.9734 236.215 40.1758 238.443L40.1758 239H82.5055V238.443C74.7079 236.215 68.5812 234.265 68.5812 219.506Z"/>
<path d="M342.499 169.378H341.942C337.208 210.873 316.6 228.417 287.359 228.417C257.84 228.417 232.776 204.467 232.776 161.581C232.776 148.492 235.561 136.796 240.574 127.606H334.702C334.702 113.681 319.942 96.9723 288.473 96.9723C253.384 96.9723 218.852 126.213 218.852 172.163C218.852 213.379 244.473 241.784 283.182 241.784C321.613 241.784 338.879 216.442 342.499 169.378ZM284.018 100.593C306.018 100.593 316.322 113.403 317.714 124.821H241.966C251.435 109.504 266.752 100.593 284.018 100.593Z"/>
<path d="M353.815 123.707L401.158 242.341L399.487 246.24C391.132 265.734 378.6 271.861 361.891 271.861C354.929 271.861 345.182 270.19 331.536 264.62V278.266C338.22 281.608 346.853 283.557 356.878 283.557C377.765 283.557 393.638 271.582 403.107 247.354L447.386 133.175C456.019 110.897 465.766 105.605 479.412 100.314V99.7571H430.12V100.314C444.88 103.934 452.677 111.453 444.323 132.897L408.12 225.632L368.853 123.428C363.005 107.833 372.752 102.82 381.664 100.314V99.7571H327.637V100.314C338.22 103.099 347.688 108.39 353.815 123.707Z"/>
<path d="M553.116 83.048C553.116 64.3895 558.686 61.0477 575.395 58.5414V57.9844H524.711V58.5414C532.509 60.7692 538.635 62.7186 538.635 77.4783V219.506C538.635 234.265 532.509 236.215 524.711 238.443V239H633.599L637.497 205.86H636.94C624.966 229.253 614.662 236.215 591.826 236.215H553.116V83.048Z"/>
<path d="M776.013 169.378C776.013 127.884 748.165 96.9723 706.113 96.9723C664.062 96.9723 636.214 127.884 636.214 169.378C636.214 210.873 664.062 241.784 706.113 241.784C748.165 241.784 776.013 210.873 776.013 169.378ZM651.809 161.859C651.809 126.213 671.581 100.593 700.544 100.593C737.861 100.593 760.418 135.96 760.418 176.897C760.418 212.544 740.646 238.164 711.683 238.164C674.088 238.164 651.809 202.797 651.809 161.859Z"/>
<path d="M787.494 123.707L836.786 247.354L860.179 187.758L883.014 247.354L927.294 133.175C935.927 110.897 945.952 105.605 959.598 100.314V99.7571H910.863V100.314C924.787 103.656 932.585 111.732 924.23 132.897L888.027 225.632L867.976 171.328L882.736 133.175C891.09 111.453 897.774 104.77 909.47 100.314V99.7571H865.748V100.314C880.23 103.934 888.027 111.453 879.673 132.897L866.305 166.593L850.432 123.428C844.583 107.555 854.609 103.099 864.356 100.314V99.7571H813.95V100.314C822.583 102.542 829.545 108.669 835.393 123.707L858.229 183.303L841.799 225.632L802.532 123.428C796.684 108.39 805.317 102.263 812.558 100.314V99.7571H761.316V100.314C771.899 103.099 781.367 108.39 787.494 123.707Z"/>
</mask>
<path d="M68.5812 219.506V146.543H182.203V219.506C182.203 234.265 176.076 236.215 168.279 238.443V239H210.609V238.443C202.811 236.215 196.684 234.265 196.684 219.506V77.4783C196.684 62.7186 202.811 60.7692 210.609 58.5414V57.9844H168.279V58.5414C176.076 60.7692 182.203 62.7186 182.203 77.4783V143.758H68.5812V77.4783C68.5812 62.7186 74.7079 60.7692 82.5055 58.5414V57.9844H40.1758L40.1758 58.5414C47.9734 60.7692 54.1 62.7186 54.1 77.4783V219.506C54.1 234.265 47.9734 236.215 40.1758 238.443L40.1758 239H82.5055V238.443C74.7079 236.215 68.5812 234.265 68.5812 219.506Z" fill="black"/>
<path d="M342.499 169.378H341.942C337.208 210.873 316.6 228.417 287.359 228.417C257.84 228.417 232.776 204.467 232.776 161.581C232.776 148.492 235.561 136.796 240.574 127.606H334.702C334.702 113.681 319.942 96.9723 288.473 96.9723C253.384 96.9723 218.852 126.213 218.852 172.163C218.852 213.379 244.473 241.784 283.182 241.784C321.613 241.784 338.879 216.442 342.499 169.378ZM284.018 100.593C306.018 100.593 316.322 113.403 317.714 124.821H241.966C251.435 109.504 266.752 100.593 284.018 100.593Z" fill="black"/>
<path d="M353.815 123.707L401.158 242.341L399.487 246.24C391.132 265.734 378.6 271.861 361.891 271.861C354.929 271.861 345.182 270.19 331.536 264.62V278.266C338.22 281.608 346.853 283.557 356.878 283.557C377.765 283.557 393.638 271.582 403.107 247.354L447.386 133.175C456.019 110.897 465.766 105.605 479.412 100.314V99.7571H430.12V100.314C444.88 103.934 452.677 111.453 444.323 132.897L408.12 225.632L368.853 123.428C363.005 107.833 372.752 102.82 381.664 100.314V99.7571H327.637V100.314C338.22 103.099 347.688 108.39 353.815 123.707Z" fill="black"/>
<path d="M553.116 83.048C553.116 64.3895 558.686 61.0477 575.395 58.5414V57.9844H524.711V58.5414C532.509 60.7692 538.635 62.7186 538.635 77.4783V219.506C538.635 234.265 532.509 236.215 524.711 238.443V239H633.599L637.497 205.86H636.94C624.966 229.253 614.662 236.215 591.826 236.215H553.116V83.048Z" fill="black"/>
<path d="M776.013 169.378C776.013 127.884 748.165 96.9723 706.113 96.9723C664.062 96.9723 636.214 127.884 636.214 169.378C636.214 210.873 664.062 241.784 706.113 241.784C748.165 241.784 776.013 210.873 776.013 169.378ZM651.809 161.859C651.809 126.213 671.581 100.593 700.544 100.593C737.861 100.593 760.418 135.96 760.418 176.897C760.418 212.544 740.646 238.164 711.683 238.164C674.088 238.164 651.809 202.797 651.809 161.859Z" fill="black"/>
<path d="M787.494 123.707L836.786 247.354L860.179 187.758L883.014 247.354L927.294 133.175C935.927 110.897 945.952 105.605 959.598 100.314V99.7571H910.863V100.314C924.787 103.656 932.585 111.732 924.23 132.897L888.027 225.632L867.976 171.328L882.736 133.175C891.09 111.453 897.774 104.77 909.47 100.314V99.7571H865.748V100.314C880.23 103.934 888.027 111.453 879.673 132.897L866.305 166.593L850.432 123.428C844.583 107.555 854.609 103.099 864.356 100.314V99.7571H813.95V100.314C822.583 102.542 829.545 108.669 835.393 123.707L858.229 183.303L841.799 225.632L802.532 123.428C796.684 108.39 805.317 102.263 812.558 100.314V99.7571H761.316V100.314C771.899 103.099 781.367 108.39 787.494 123.707Z" fill="black"/>
<path d="M68.5812 219.506H69.2165H68.5812ZM68.5812 146.543V145.907C68.2304 145.907 67.946 146.192 67.946 146.543H68.5812ZM182.203 146.543H182.838C182.838 146.192 182.554 145.907 182.203 145.907V146.543ZM182.203 219.506H182.838H182.203ZM168.279 238.443L168.104 237.832C167.832 237.91 167.644 238.159 167.644 238.443H168.279ZM168.279 239H167.644C167.644 239.35 167.928 239.635 168.279 239.635V239ZM210.609 239V239.635C210.959 239.635 211.244 239.35 211.244 239H210.609ZM210.609 238.443H211.244C211.244 238.159 211.056 237.91 210.783 237.832L210.609 238.443ZM196.684 219.506H197.32H196.684ZM196.684 77.4783H196.049H196.684ZM210.609 58.5414L210.783 59.1522C211.056 59.0742 211.244 58.825 211.244 58.5414H210.609ZM210.609 57.9844H211.244C211.244 57.6335 210.959 57.3491 210.609 57.3491V57.9844ZM168.279 57.9844V57.3491C167.928 57.3491 167.644 57.6335 167.644 57.9844H168.279ZM168.279 58.5414H167.644C167.644 58.825 167.832 59.0742 168.104 59.1522L168.279 58.5414ZM182.203 77.4783H181.568H182.203ZM182.203 143.758V144.393C182.554 144.393 182.838 144.109 182.838 143.758H182.203ZM68.5812 143.758H67.946C67.946 144.109 68.2304 144.393 68.5812 144.393V143.758ZM68.5812 77.4783H67.946H68.5812ZM82.5055 58.5414L82.68 59.1522C82.9527 59.0742 83.1407 58.825 83.1407 58.5414H82.5055ZM82.5055 57.9844H83.1407C83.1407 57.6335 82.8563 57.3491 82.5055 57.3491V57.9844ZM40.1758 57.9844V57.3491C39.8249 57.3491 39.5405 57.6335 39.5405 57.9844L40.1758 57.9844ZM40.1758 58.5414L39.5405 58.5414C39.5405 58.825 39.7286 59.0742 40.0013 59.1522L40.1758 58.5414ZM54.1 77.4783H53.4648H54.1ZM54.1 219.506H54.7353H54.1ZM40.1758 238.443L40.0013 237.832C39.7286 237.91 39.5405 238.159 39.5405 238.443L40.1758 238.443ZM40.1758 239L39.5405 239C39.5405 239.168 39.6075 239.33 39.7266 239.449C39.8457 239.568 40.0073 239.635 40.1758 239.635V239ZM82.5055 239V239.635C82.8563 239.635 83.1407 239.35 83.1407 239H82.5055ZM82.5055 238.443H83.1407C83.1407 238.159 82.9527 237.91 82.68 237.832L82.5055 238.443ZM342.499 169.378L343.133 169.427C343.146 169.251 343.086 169.077 342.966 168.947C342.845 168.817 342.676 168.743 342.499 168.743V169.378ZM341.942 169.378V168.743C341.619 168.743 341.348 168.985 341.311 169.306L341.942 169.378ZM232.776 161.581L233.412 161.581L232.776 161.581ZM240.574 127.606V126.97C240.341 126.97 240.128 127.097 240.016 127.301L240.574 127.606ZM334.702 127.606V128.241C335.053 128.241 335.337 127.956 335.337 127.606L334.702 127.606ZM218.852 172.163L219.487 172.163L218.852 172.163ZM283.182 241.784V241.149V241.784ZM317.714 124.821V125.456C317.896 125.456 318.069 125.378 318.19 125.242C318.31 125.106 318.367 124.924 318.345 124.744L317.714 124.821ZM241.966 124.821L241.426 124.487C241.305 124.683 241.299 124.929 241.412 125.13C241.524 125.331 241.736 125.456 241.966 125.456V124.821ZM353.815 123.707L354.405 123.471L354.405 123.471L353.815 123.707ZM401.158 242.341L401.741 242.592C401.808 242.437 401.81 242.262 401.748 242.106L401.158 242.341ZM399.487 246.24L398.903 245.99L398.903 245.99L399.487 246.24ZM361.891 271.861V271.226V271.861ZM331.536 264.62L331.776 264.032C331.58 263.952 331.358 263.975 331.182 264.093C331.006 264.211 330.901 264.409 330.901 264.62H331.536ZM331.536 278.266H330.901C330.901 278.507 331.037 278.727 331.252 278.834L331.536 278.266ZM356.878 283.557V282.922V283.557ZM403.107 247.354L403.699 247.585L403.699 247.584L403.107 247.354ZM447.386 133.175L447.978 133.405L447.978 133.405L447.386 133.175ZM479.412 100.314L479.641 100.906C479.886 100.812 480.047 100.576 480.047 100.314H479.412ZM479.412 99.7571H480.047C480.047 99.4063 479.763 99.1219 479.412 99.1219V99.7571ZM430.12 99.7571V99.1219C429.769 99.1219 429.485 99.4063 429.485 99.7571H430.12ZM430.12 100.314H429.485C429.485 100.607 429.684 100.861 429.969 100.931L430.12 100.314ZM444.323 132.897L444.914 133.128L444.915 133.127L444.323 132.897ZM408.12 225.632L407.527 225.86C407.621 226.105 407.856 226.267 408.118 226.268C408.38 226.268 408.616 226.108 408.711 225.863L408.12 225.632ZM368.853 123.428L368.258 123.651L368.26 123.656L368.853 123.428ZM381.664 100.314L381.836 100.926C382.11 100.849 382.299 100.599 382.299 100.314H381.664ZM381.664 99.7571H382.299C382.299 99.4063 382.014 99.1219 381.664 99.1219V99.7571ZM327.637 99.7571V99.1219C327.287 99.1219 327.002 99.4063 327.002 99.7571H327.637ZM327.637 100.314H327.002C327.002 100.603 327.197 100.855 327.476 100.928L327.637 100.314ZM553.116 83.048H552.481H553.116ZM575.395 58.5414L575.489 59.1696C575.8 59.1229 576.03 58.8558 576.03 58.5414H575.395ZM575.395 57.9844H576.03C576.03 57.6335 575.746 57.3491 575.395 57.3491V57.9844ZM524.711 57.9844V57.3491C524.36 57.3491 524.076 57.6335 524.076 57.9844H524.711ZM524.711 58.5414H524.076C524.076 58.825 524.264 59.0742 524.536 59.1522L524.711 58.5414ZM538.635 77.4783H538H538.635ZM538.635 219.506H539.27H538.635ZM524.711 238.443L524.536 237.832C524.264 237.91 524.076 238.159 524.076 238.443H524.711ZM524.711 239H524.076C524.076 239.35 524.36 239.635 524.711 239.635V239ZM633.599 239V239.635C633.921 239.635 634.192 239.394 634.229 239.074L633.599 239ZM637.497 205.86L638.128 205.934C638.149 205.754 638.093 205.573 637.972 205.438C637.851 205.302 637.679 205.225 637.497 205.225V205.86ZM636.94 205.86V205.225C636.702 205.225 636.484 205.358 636.375 205.57L636.94 205.86ZM591.826 236.215V235.579V236.215ZM553.116 236.215H552.481C552.481 236.566 552.766 236.85 553.116 236.85V236.215ZM706.113 241.784V242.42V241.784ZM760.418 176.897L759.783 176.897L760.418 176.897ZM787.494 123.707L788.084 123.472L788.084 123.471L787.494 123.707ZM836.786 247.354L836.196 247.589C836.292 247.831 836.527 247.99 836.788 247.989C837.048 247.989 837.282 247.829 837.377 247.586L836.786 247.354ZM860.179 187.758L860.772 187.531C860.678 187.286 860.443 187.124 860.181 187.123C859.919 187.122 859.683 187.282 859.587 187.526L860.179 187.758ZM883.014 247.354L882.421 247.581C882.515 247.827 882.75 247.989 883.013 247.989C883.276 247.99 883.512 247.829 883.607 247.584L883.014 247.354ZM927.294 133.175L927.886 133.405L927.886 133.405L927.294 133.175ZM959.598 100.314L959.827 100.906C960.072 100.812 960.233 100.576 960.233 100.314H959.598ZM959.598 99.7571H960.233C960.233 99.4063 959.949 99.1219 959.598 99.1219V99.7571ZM910.863 99.7571V99.1219C910.512 99.1219 910.228 99.4063 910.228 99.7571H910.863ZM910.863 100.314H910.228C910.228 100.608 910.429 100.863 910.715 100.932L910.863 100.314ZM924.23 132.897L923.639 132.664L923.638 132.666L924.23 132.897ZM888.027 225.632L887.431 225.852C887.523 226.1 887.757 226.265 888.021 226.268C888.285 226.27 888.523 226.109 888.619 225.863L888.027 225.632ZM867.976 171.328L867.384 171.099C867.328 171.243 867.327 171.403 867.38 171.548L867.976 171.328ZM882.736 133.175L883.328 133.405L883.329 133.403L882.736 133.175ZM909.47 100.314L909.697 100.908C909.943 100.814 910.106 100.578 910.106 100.314H909.47ZM909.47 99.7571H910.106C910.106 99.4063 909.821 99.1219 909.47 99.1219V99.7571ZM865.748 99.7571V99.1219C865.398 99.1219 865.113 99.4063 865.113 99.7571H865.748ZM865.748 100.314H865.113C865.113 100.606 865.311 100.86 865.594 100.93L865.748 100.314ZM879.673 132.897L880.263 133.131L880.265 133.127L879.673 132.897ZM866.305 166.593L865.709 166.813C865.8 167.06 866.034 167.225 866.297 167.229C866.561 167.232 866.799 167.073 866.896 166.828L866.305 166.593ZM850.432 123.428L851.028 123.209L851.028 123.209L850.432 123.428ZM864.356 100.314L864.53 100.925C864.803 100.847 864.991 100.598 864.991 100.314H864.356ZM864.356 99.7571H864.991C864.991 99.4063 864.707 99.1219 864.356 99.1219V99.7571ZM813.95 99.7571V99.1219C813.599 99.1219 813.315 99.4063 813.315 99.7571H813.95ZM813.95 100.314H813.315C813.315 100.604 813.511 100.857 813.791 100.929L813.95 100.314ZM835.393 123.707L835.987 123.48L835.986 123.477L835.393 123.707ZM858.229 183.303L858.821 183.532C858.879 183.385 858.879 183.223 858.822 183.075L858.229 183.303ZM841.799 225.632L841.206 225.86C841.3 226.105 841.535 226.267 841.798 226.268C842.06 226.268 842.296 226.107 842.391 225.862L841.799 225.632ZM802.532 123.428L803.125 123.201L803.124 123.198L802.532 123.428ZM812.558 100.314L812.723 100.927C813 100.853 813.193 100.601 813.193 100.314H812.558ZM812.558 99.7571H813.193C813.193 99.4063 812.909 99.1219 812.558 99.1219V99.7571ZM761.316 99.7571V99.1219C760.966 99.1219 760.681 99.4063 760.681 99.7571H761.316ZM761.316 100.314H760.681C760.681 100.603 760.876 100.855 761.155 100.928L761.316 100.314ZM69.2165 219.506V146.543H67.946V219.506H69.2165ZM68.5812 147.178H182.203V145.907H68.5812V147.178ZM181.568 146.543V219.506H182.838V146.543H181.568ZM181.568 219.506C181.568 226.81 180.05 230.793 177.707 233.234C175.339 235.701 172.033 236.709 168.104 237.832L168.453 239.053C172.322 237.948 175.979 236.868 178.623 234.113C181.293 231.333 182.838 226.961 182.838 219.506L181.568 219.506ZM167.644 238.443V239H168.914V238.443H167.644ZM168.279 239.635H210.609V238.364H168.279V239.635ZM211.244 239V238.443H209.973V239H211.244ZM210.783 237.832C206.854 236.709 203.549 235.701 201.181 233.234C198.837 230.793 197.32 226.81 197.32 219.506L196.049 219.506C196.049 226.961 197.595 231.333 200.264 234.113C202.909 236.868 206.565 237.948 210.434 239.053L210.783 237.832ZM197.32 219.506V77.4783H196.049V219.506H197.32ZM197.32 77.4783C197.32 70.1737 198.837 66.1914 201.181 63.7503C203.549 61.2834 206.854 60.2747 210.783 59.1522L210.434 57.9305C206.565 59.0359 202.909 60.1158 200.264 62.8705C197.595 65.651 196.049 70.0232 196.049 77.4783L197.32 77.4783ZM211.244 58.5414V57.9844H209.973V58.5414H211.244ZM210.609 57.3491H168.279V58.6196H210.609V57.3491ZM167.644 57.9844V58.5414H168.914V57.9844H167.644ZM168.104 59.1522C172.033 60.2747 175.339 61.2834 177.707 63.7503C180.05 66.1914 181.568 70.1737 181.568 77.4783L182.838 77.4783C182.838 70.0232 181.293 65.651 178.623 62.8705C175.979 60.1158 172.322 59.0359 168.453 57.9305L168.104 59.1522ZM181.568 77.4783V143.758H182.838V77.4783H181.568ZM182.203 143.122H68.5812V144.393H182.203V143.122ZM69.2165 143.758V77.4783H67.946V143.758H69.2165ZM69.2165 77.4783C69.2165 70.1737 70.7341 66.1914 73.0775 63.7503C75.4458 61.2834 78.7513 60.2747 82.68 59.1522L82.331 57.9305C78.4621 59.0359 74.8055 60.1158 72.161 62.8705C69.4917 65.651 67.946 70.0232 67.946 77.4783L69.2165 77.4783ZM83.1407 58.5414V57.9844H81.8702V58.5414H83.1407ZM82.5055 57.3491H40.1758V58.6196H82.5055V57.3491ZM39.5405 57.9844L39.5405 58.5414L40.811 58.5414L40.811 57.9844L39.5405 57.9844ZM40.0013 59.1522C43.93 60.2747 47.2355 61.2834 49.6037 63.7503C51.9472 66.1914 53.4648 70.1737 53.4648 77.4783L54.7353 77.4783C54.7353 70.0232 53.1895 65.651 50.5203 62.8705C47.8757 60.1158 44.2191 59.0359 40.3503 57.9305L40.0013 59.1522ZM53.4648 77.4783V219.506H54.7353V77.4783H53.4648ZM53.4648 219.506C53.4648 226.81 51.9472 230.793 49.6037 233.234C47.2355 235.701 43.93 236.709 40.0013 237.832L40.3503 239.053C44.2191 237.948 47.8757 236.868 50.5203 234.113C53.1895 231.333 54.7353 226.961 54.7353 219.506L53.4648 219.506ZM39.5405 238.443L39.5405 239L40.811 239L40.811 238.443L39.5405 238.443ZM40.1758 239.635H82.5055V238.364H40.1758V239.635ZM83.1407 239V238.443H81.8702V239H83.1407ZM82.68 237.832C78.7513 236.709 75.4458 235.701 73.0775 233.234C70.7341 230.793 69.2165 226.81 69.2165 219.506L67.946 219.506C67.946 226.961 69.4917 231.333 72.161 234.113C74.8055 236.868 78.4621 237.948 82.331 239.053L82.68 237.832ZM342.499 168.743H341.942V170.014H342.499V168.743ZM341.311 169.306C338.954 189.968 332.654 204.575 323.388 214.013C314.132 223.44 301.847 227.782 287.359 227.782V229.052C302.113 229.052 314.752 224.622 324.294 214.903C333.825 205.196 340.197 190.283 342.574 169.45L341.311 169.306ZM287.359 227.782C272.779 227.782 259.309 221.871 249.476 210.663C239.64 199.451 233.412 182.901 233.412 161.581L232.141 161.581C232.141 183.147 238.444 200.015 248.521 211.5C258.599 222.989 272.42 229.052 287.359 229.052V227.782ZM233.412 161.581C233.412 148.578 236.179 136.99 241.132 127.91L240.016 127.301C234.944 136.601 232.141 148.406 232.141 161.581L233.412 161.581ZM240.574 128.241H334.702V126.97H240.574V128.241ZM335.337 127.606C335.337 113.19 320.134 96.337 288.473 96.337V97.6075C319.75 97.6075 334.067 114.173 334.067 127.606L335.337 127.606ZM288.473 96.337C253.032 96.337 218.217 125.864 218.217 172.163L219.487 172.163C219.487 126.562 253.737 97.6075 288.473 97.6075V96.337ZM218.217 172.163C218.217 192.902 224.664 210.47 236.033 222.859C247.407 235.254 263.664 242.42 283.182 242.42V241.149C263.991 241.149 248.083 234.112 236.969 222C225.85 209.883 219.487 192.64 219.487 172.163L218.217 172.163ZM283.182 242.42C302.555 242.42 316.68 236.022 326.395 223.622C336.081 211.259 341.319 193.008 343.133 169.427L341.866 169.33C340.06 192.812 334.854 210.765 325.395 222.839C315.964 234.876 302.241 241.149 283.182 241.149V242.42ZM284.018 101.228C305.726 101.228 315.734 113.826 317.084 124.898L318.345 124.744C316.91 112.98 306.31 99.9573 284.018 99.9573V101.228ZM317.714 124.186H241.966V125.456H317.714V124.186ZM242.507 125.155C251.867 110.013 266.986 101.228 284.018 101.228V99.9573C266.517 99.9573 251.002 108.996 241.426 124.487L242.507 125.155ZM353.225 123.942L400.567 242.577L401.748 242.106L354.405 123.471L353.225 123.942ZM400.574 242.091L398.903 245.99L400.07 246.49L401.741 242.592L400.574 242.091ZM398.903 245.99C394.762 255.652 389.612 261.941 383.482 265.824C377.349 269.708 370.169 271.226 361.891 271.226V272.496C370.322 272.496 377.762 270.95 384.162 266.897C390.563 262.843 395.857 256.322 400.07 246.49L398.903 245.99ZM361.891 271.226C355.031 271.226 345.367 269.579 331.776 264.032L331.296 265.208C344.997 270.801 354.827 272.496 361.891 272.496V271.226ZM330.901 264.62V278.266H332.172V264.62H330.901ZM331.252 278.834C338.04 282.228 346.774 284.192 356.878 284.192V282.922C346.932 282.922 338.4 280.987 331.82 277.698L331.252 278.834ZM356.878 284.192C367.451 284.192 376.781 281.159 384.664 275.043C392.54 268.933 398.934 259.776 403.699 247.585L402.515 247.123C397.811 259.16 391.534 268.105 383.885 274.039C376.242 279.968 367.192 282.922 356.878 282.922V284.192ZM403.699 247.584L447.978 133.405L446.794 132.946L402.515 247.124L403.699 247.584ZM447.978 133.405C452.272 122.324 456.82 115.526 461.947 110.843C467.077 106.158 472.832 103.547 479.641 100.906L479.182 99.7218C472.346 102.373 466.404 105.053 461.091 109.905C455.775 114.761 451.133 121.748 446.794 132.946L447.978 133.405ZM480.047 100.314V99.7571H478.776V100.314H480.047ZM479.412 99.1219H430.12V100.392H479.412V99.1219ZM429.485 99.7571V100.314H430.755V99.7571H429.485ZM429.969 100.931C437.309 102.732 442.717 105.46 445.332 110.227C447.944 114.989 447.886 122 443.731 132.666L444.915 133.127C449.114 122.35 449.334 114.88 446.446 109.616C443.561 104.358 437.69 101.517 430.271 99.6971L429.969 100.931ZM443.731 132.666L407.528 225.401L408.711 225.863L444.914 133.128L443.731 132.666ZM408.713 225.404L369.446 123.201L368.26 123.656L407.527 225.86L408.713 225.404ZM369.448 123.205C366.576 115.546 367.581 110.649 370.219 107.36C372.905 104.011 377.397 102.174 381.836 100.926L381.492 99.7026C377.018 100.961 372.181 102.883 369.228 106.565C366.226 110.308 365.282 115.715 368.258 123.651L369.448 123.205ZM382.299 100.314V99.7571H381.028V100.314H382.299ZM381.664 99.1219H327.637V100.392H381.664V99.1219ZM327.002 99.7571V100.314H328.273V99.7571H327.002ZM327.476 100.928C332.717 102.308 337.637 104.296 341.999 107.806C346.357 111.313 350.196 116.37 353.225 123.943L354.405 123.471C351.307 115.727 347.349 110.48 342.795 106.816C338.246 103.155 333.14 101.105 327.799 99.6997L327.476 100.928ZM553.752 83.048C553.752 73.7433 555.15 68.4756 558.439 65.1868C561.753 61.873 567.113 60.426 575.489 59.1696L575.301 57.9131C566.968 59.1631 561.189 60.6401 557.541 64.2884C553.867 67.9618 552.481 73.6943 552.481 83.048L553.752 83.048ZM576.03 58.5414V57.9844H574.76V58.5414H576.03ZM575.395 57.3491H524.711V58.6196H575.395V57.3491ZM524.076 57.9844V58.5414H525.346V57.9844H524.076ZM524.536 59.1522C528.465 60.2747 531.771 61.2834 534.139 63.7503C536.482 66.1914 538 70.1737 538 77.4783L539.27 77.4783C539.27 70.0232 537.725 65.651 535.055 62.8705C532.411 60.1158 528.754 59.0359 524.885 57.9305L524.536 59.1522ZM538 77.4783V219.506H539.27V77.4783H538ZM538 219.506C538 226.81 536.482 230.793 534.139 233.234C531.771 235.701 528.465 236.709 524.536 237.832L524.885 239.053C528.754 237.948 532.411 236.868 535.055 234.113C537.725 231.333 539.27 226.961 539.27 219.506L538 219.506ZM524.076 238.443V239H525.346V238.443H524.076ZM524.711 239.635H633.599V238.364H524.711V239.635ZM634.229 239.074L638.128 205.934L636.866 205.786L632.968 238.925L634.229 239.074ZM637.497 205.225H636.94V206.495H637.497V205.225ZM636.375 205.57C630.403 217.237 624.893 224.709 618.101 229.283C611.323 233.847 603.183 235.579 591.826 235.579V236.85C603.304 236.85 611.735 235.101 618.811 230.336C625.873 225.581 631.503 217.876 637.506 206.149L636.375 205.57ZM591.826 235.579H553.116V236.85H591.826V235.579ZM553.752 236.215V83.048H552.481V236.215H553.752ZM776.648 169.378C776.648 148.488 769.637 130.224 757.294 117.178C744.948 104.129 727.302 96.337 706.113 96.337V97.6075C726.976 97.6075 744.28 105.272 756.371 118.052C768.465 130.835 775.378 148.774 775.378 169.378L776.648 169.378ZM706.113 96.337C684.925 96.337 667.279 104.129 654.933 117.178C642.59 130.224 635.578 148.488 635.578 169.378L636.849 169.378C636.849 148.774 643.762 130.835 655.856 118.052C667.947 105.272 685.251 97.6075 706.113 97.6075V96.337ZM635.578 169.378C635.578 190.268 642.59 208.532 654.933 221.578C667.279 234.628 684.925 242.42 706.113 242.42V241.149C685.251 241.149 667.947 233.485 655.856 220.705C643.762 207.922 636.849 189.983 636.849 169.378L635.578 169.378ZM706.113 242.42C727.302 242.42 744.948 234.628 757.294 221.578C769.637 208.532 776.648 190.268 776.648 169.378L775.378 169.378C775.378 189.983 768.465 207.922 756.371 220.705C744.28 233.485 726.976 241.149 706.113 241.149V242.42ZM652.444 161.859C652.444 144.149 657.356 128.979 665.814 118.252C674.264 107.535 686.268 101.228 700.544 101.228V99.9573C685.857 99.9573 673.494 106.46 664.817 117.465C656.148 128.46 651.174 143.924 651.174 161.859L652.444 161.859ZM700.544 101.228C718.977 101.228 733.765 109.954 743.964 123.771C754.172 137.601 759.783 156.538 759.783 176.897L761.053 176.897C761.053 156.32 755.385 137.104 744.986 123.016C734.577 108.915 719.427 99.9573 700.544 99.9573V101.228ZM759.783 176.897C759.783 194.608 754.871 209.778 746.413 220.505C737.963 231.221 725.959 237.529 711.683 237.529V238.799C726.37 238.799 738.733 232.296 747.41 221.291C756.079 210.297 761.053 194.833 761.053 176.897L759.783 176.897ZM711.683 237.529C693.11 237.529 678.323 228.802 668.159 214.987C657.986 201.158 652.444 182.221 652.444 161.859L651.174 161.859C651.174 182.435 656.771 201.651 667.136 215.74C677.511 229.843 692.661 238.799 711.683 238.799V237.529ZM786.904 123.942L836.196 247.589L837.376 247.119L788.084 123.472L786.904 123.942ZM837.377 247.586L860.77 187.99L859.587 187.526L836.195 247.122L837.377 247.586ZM859.585 187.986L882.421 247.581L883.608 247.127L860.772 187.531L859.585 187.986ZM883.607 247.584L927.886 133.405L926.701 132.946L882.422 247.124L883.607 247.584ZM927.886 133.405C932.179 122.327 936.795 115.529 941.991 110.846C947.191 106.159 953.016 103.547 959.827 100.906L959.368 99.7218C952.533 102.372 946.523 105.051 941.141 109.902C935.754 114.757 931.042 121.745 926.701 132.946L927.886 133.405ZM960.233 100.314V99.7571H958.963V100.314H960.233ZM959.598 99.1219H910.863V100.392H959.598V99.1219ZM910.228 99.7571V100.314H911.498V99.7571H910.228ZM910.715 100.932C917.616 102.588 922.82 105.379 925.338 110.215C927.856 115.053 927.792 122.144 923.639 132.664L924.821 133.13C929.023 122.485 929.237 114.955 926.465 109.628C923.691 104.299 918.034 101.382 911.011 99.6964L910.715 100.932ZM923.638 132.666L887.435 225.401L888.619 225.863L924.822 133.128L923.638 132.666ZM888.623 225.412L868.572 171.108L867.38 171.548L887.431 225.852L888.623 225.412ZM868.569 171.557L883.328 133.405L882.143 132.946L867.384 171.099L868.569 171.557ZM883.329 133.403C887.497 122.565 891.226 115.542 895.335 110.68C899.427 105.838 903.922 103.108 909.697 100.908L909.244 99.7204C903.323 101.976 898.628 104.815 894.365 109.86C890.119 114.884 886.329 122.064 882.143 132.947L883.329 133.403ZM910.106 100.314V99.7571H908.835V100.314H910.106ZM909.47 99.1219H865.748V100.392H909.47V99.1219ZM865.113 99.7571V100.314H866.384V99.7571H865.113ZM865.594 100.93C872.794 102.73 878.133 105.457 880.715 110.224C883.295 114.987 883.236 122.001 879.081 132.666L880.265 133.127C884.464 122.349 884.683 114.882 881.832 109.619C878.984 104.361 873.184 101.518 865.902 99.6978L865.594 100.93ZM879.082 132.663L865.715 166.359L866.896 166.828L880.263 133.131L879.082 132.663ZM866.902 166.374L851.028 123.209L849.835 123.648L865.709 166.813L866.902 166.374ZM851.028 123.209C848.154 115.409 849.232 110.595 852.025 107.38C854.882 104.091 859.65 102.319 864.53 100.925L864.181 99.7033C859.315 101.094 854.197 102.943 851.066 106.546C847.872 110.224 846.861 115.574 849.836 123.648L851.028 123.209ZM864.991 100.314V99.7571H863.721V100.314H864.991ZM864.356 99.1219H813.95V100.392H864.356V99.1219ZM813.315 99.7571V100.314H814.585V99.7571H813.315ZM813.791 100.929C822.16 103.089 828.998 109.015 834.801 123.937L835.986 123.477C830.092 108.323 823.007 101.995 814.109 99.699L813.791 100.929ZM834.8 123.934L857.636 183.53L858.822 183.075L835.987 123.48L834.8 123.934ZM857.637 183.073L841.206 225.402L842.391 225.862L858.821 183.532L857.637 183.073ZM842.392 225.404L803.125 123.201L801.939 123.656L841.206 225.86L842.392 225.404ZM803.124 123.198C800.251 115.81 800.978 110.743 803.172 107.305C805.386 103.835 809.184 101.88 812.723 100.927L812.393 99.7007C808.691 100.697 804.552 102.781 802.101 106.621C799.63 110.493 798.965 116.009 801.94 123.659L803.124 123.198ZM813.193 100.314V99.7571H811.922V100.314H813.193ZM812.558 99.1219H761.316V100.392H812.558V99.1219ZM760.681 99.7571V100.314H761.952V99.7571H760.681ZM761.155 100.928C766.396 102.308 771.316 104.296 775.678 107.806C780.036 111.313 783.875 116.37 786.904 123.943L788.084 123.471C784.986 115.727 781.028 110.48 776.474 106.816C771.925 103.155 766.819 101.105 761.478 99.6997L761.155 100.928Z" fill="black" mask="url(#path-1-outside-1_806_275)"/>
</svg>
