<svg version="1.1" xmlns="http://www.w3.org/2000/svg" x="0" y="0" viewBox="0 0 417.7 228.7" width="125px" height="68.44px" xml:space="preserve"><path  d="M199.7 0L168 80.9 136.7 0H80.6l59.7 150.9c-7.4 19.5-22.7 31-47.8 30.6V228c58.8 6 85.1-29.4 107.5-85.8C219.7 92.3 255.8 0 255.8 0h-56.1z"></path><path  d="M30.2 112.4C13.6 112.4 0 126 0 142.6c0 16.7 13.6 30.2 30.2 30.2s30.2-13.6 30.2-30.2-13.5-30.2-30.2-30.2z"></path><path  d="M272.2 170.8h145.5v-50.3H344l71.8-75.1V0h-142v50.2h65.1l-66.7 71.4z"></path></svg>