<?xml version="1.0" encoding="utf-8"?>
<!-- Generator: Adobe Illustrator 25.4.2, SVG Export Plug-In . SVG Version: 6.00 Build 0)  -->
<svg version="1.1" id="Calque_1" xmlns="http://www.w3.org/2000/svg" xmlns:xlink="http://www.w3.org/1999/xlink" x="0px" y="0px"
	 viewBox="0 0 201 68.4" style="enable-background:new 0 0 201 68.4;" xml:space="preserve">
<path d="M97.8,0l-9.5,24.2L78.9,0H62.1L80,45.2c-2.2,5.8-6.8,9.3-14.3,9.2v13.9c17.6,1.8,25.5-8.8,32.2-25.7
	C103.7,27.6,114.6,0,114.6,0S97.8,0,97.8,0z"/>
<path d="M47,33.6c-5,0-9,4.1-9,9c0,5,4.1,9,9,9s9-4.1,9-9S52,33.6,47,33.6z"/>
<path d="M119.5,51.1H163V36.1h-22.1l21.5-22.5V0h-42.5v15h19.5l-20,21.4V51.1z"/>
</svg>
